G04*
G04 #@! TF.GenerationSoftware,Altium Limited,Altium Designer,18.0.9 (584)*
G04*
G04 Layer_Color=16711935*
%FSLAX44Y44*%
%MOMM*%
G71*
G01*
G75*
%ADD32C,1.8532*%
%ADD33R,1.8532X1.8532*%
%ADD34C,2.2032*%
%ADD35R,1.8032X1.8032*%
%ADD36O,2.0032X1.8032*%
%ADD37R,1.3716X1.3716*%
%ADD38C,1.3716*%
%ADD39O,2.2032X1.8032*%
%ADD40R,2.2032X1.8032*%
%ADD41R,1.3716X1.3716*%
%ADD42C,1.8032*%
%ADD43C,1.4478*%
%ADD44R,1.4478X1.4478*%
D32*
X100000Y137500D02*
D03*
X1112500Y580000D02*
D03*
D33*
X100000Y87500D02*
D03*
X1112500Y630000D02*
D03*
D34*
X975000Y215000D02*
D03*
X903000Y216000D02*
D03*
X552500Y183000D02*
D03*
Y132000D02*
D03*
D35*
X672500Y149000D02*
D03*
Y175000D02*
D03*
Y200000D02*
D03*
X345000Y165000D02*
D03*
Y140000D02*
D03*
Y114000D02*
D03*
X390000Y460500D02*
D03*
D36*
X455000Y227500D02*
D03*
Y77500D02*
D03*
D37*
X602280Y32500D02*
D03*
D38*
X457500D02*
D03*
X275000Y115000D02*
D03*
D39*
X137500Y204400D02*
D03*
Y229800D02*
D03*
Y255200D02*
D03*
D40*
Y280600D02*
D03*
D41*
X275000Y229750D02*
D03*
D42*
X390000Y435500D02*
D03*
Y410500D02*
D03*
Y385500D02*
D03*
X620000Y460500D02*
D03*
Y385500D02*
D03*
Y410500D02*
D03*
Y435500D02*
D03*
D43*
X228524Y357500D02*
D03*
D44*
X100000D02*
D03*
M02*
