G04*
G04 #@! TF.GenerationSoftware,Altium Limited,Altium Designer,18.0.9 (584)*
G04*
G04 Layer_Color=8421504*
%FSLAX44Y44*%
%MOMM*%
G71*
G01*
G75*
%ADD16R,0.6000X0.5600*%
%ADD17R,0.5600X0.6000*%
%ADD18R,1.0200X0.3600*%
%ADD19R,1.1100X0.5700*%
%ADD20R,2.1844X0.5588*%
%ADD21R,0.7000X1.3000*%
%ADD22R,1.3000X0.7000*%
%ADD23R,1.6000X3.0000*%
D16*
X417500Y638150D02*
D03*
Y646850D02*
D03*
D17*
X586850Y647500D02*
D03*
X578150D02*
D03*
X208800Y510000D02*
D03*
X217500D02*
D03*
D18*
X269550Y279000D02*
D03*
Y272500D02*
D03*
Y266000D02*
D03*
X250450D02*
D03*
Y272500D02*
D03*
Y279000D02*
D03*
D19*
X479500Y633650D02*
D03*
Y646350D02*
D03*
X545500D02*
D03*
Y633650D02*
D03*
D20*
X141378Y458050D02*
D03*
Y470750D02*
D03*
Y483450D02*
D03*
Y496150D02*
D03*
Y508850D02*
D03*
Y521550D02*
D03*
Y534250D02*
D03*
Y546950D02*
D03*
X188622D02*
D03*
Y534250D02*
D03*
Y521550D02*
D03*
Y508850D02*
D03*
Y496150D02*
D03*
Y483450D02*
D03*
Y470750D02*
D03*
Y458050D02*
D03*
D21*
X393000Y682500D02*
D03*
X412000D02*
D03*
X395500Y615000D02*
D03*
X414500D02*
D03*
X165500Y420000D02*
D03*
X184500D02*
D03*
X97000Y467500D02*
D03*
X78000D02*
D03*
X110500Y420000D02*
D03*
X129500D02*
D03*
D22*
X247500Y440500D02*
D03*
Y459500D02*
D03*
X80000Y503000D02*
D03*
Y522000D02*
D03*
X232500Y538000D02*
D03*
Y557000D02*
D03*
X270000Y473000D02*
D03*
Y492000D02*
D03*
D23*
X982500Y632500D02*
D03*
Y581500D02*
D03*
M02*
