G04*
G04 #@! TF.GenerationSoftware,Altium Limited,Altium Designer,18.0.9 (584)*
G04*
G04 Layer_Physical_Order=2*
G04 Layer_Color=16711680*
%FSLAX44Y44*%
%MOMM*%
G71*
G01*
G75*
%ADD37R,1.3716X1.3716*%
%ADD38C,1.3716*%
%ADD41R,1.3716X1.3716*%
%ADD43C,1.4478*%
%ADD44R,1.4478X1.4478*%
%ADD46C,0.3000*%
%ADD51C,1.6500*%
%ADD52R,1.6500X1.6500*%
%ADD53C,2.0000*%
%ADD54R,1.6000X1.6000*%
%ADD55O,1.8000X1.6000*%
%ADD56O,2.0000X1.6000*%
%ADD57R,2.0000X1.6000*%
%ADD58C,1.6000*%
%ADD59C,1.2700*%
%ADD60C,2.0000*%
G36*
X470000Y590000D02*
X342500D01*
X315000Y562500D01*
Y500000D01*
X302500Y487500D01*
X282500D01*
X257500Y512500D01*
X205000D01*
X187500Y530000D01*
X87500Y530000D01*
X87500Y270000D01*
X197500D01*
X207500Y260000D01*
X247500D01*
Y245000D01*
X247500Y245000D01*
X107500D01*
Y180000D01*
X245000D01*
Y115000D01*
X87500D01*
Y115000D01*
X22500Y115000D01*
Y750000D01*
X470000D01*
Y590000D01*
D02*
G37*
G36*
X182500Y372500D02*
X257500Y297500D01*
Y280000D01*
X232500D01*
X147500Y365000D01*
Y517500D01*
X182500D01*
Y372500D01*
D02*
G37*
G36*
X1052500Y625000D02*
X1087500Y590000D01*
X1137500D01*
Y475000D01*
X850000Y187500D01*
X645000D01*
X645000Y452500D01*
X610000Y452500D01*
X585000Y477500D01*
Y750000D01*
X1052500D01*
Y625000D01*
D02*
G37*
D37*
X602280Y32500D02*
D03*
D38*
X457500D02*
D03*
X275000Y115000D02*
D03*
D41*
Y229750D02*
D03*
D43*
X228524Y357500D02*
D03*
D44*
X100000D02*
D03*
D46*
X207500Y272500D02*
X220000D01*
X112500Y367500D02*
X207500Y272500D01*
X112500Y367500D02*
Y515000D01*
X222500Y390000D02*
Y440000D01*
Y390000D02*
X228524Y383976D01*
X240000Y487500D02*
X247500Y480000D01*
X210000Y487500D02*
X240000D01*
D51*
X100000Y137500D02*
D03*
X1112500Y580000D02*
D03*
D52*
X100000Y87500D02*
D03*
X1112500Y630000D02*
D03*
D53*
X975000Y215000D02*
D03*
X903000Y216000D02*
D03*
X552500Y183000D02*
D03*
Y132000D02*
D03*
D54*
X672500Y149000D02*
D03*
Y175000D02*
D03*
Y200000D02*
D03*
X345000Y165000D02*
D03*
Y140000D02*
D03*
Y114000D02*
D03*
X390000Y460500D02*
D03*
D55*
X455000Y227500D02*
D03*
Y77500D02*
D03*
D56*
X137500Y204400D02*
D03*
Y229800D02*
D03*
Y255200D02*
D03*
D57*
Y280600D02*
D03*
D58*
X390000Y435500D02*
D03*
Y410500D02*
D03*
Y385500D02*
D03*
X620000Y460500D02*
D03*
Y385500D02*
D03*
Y410500D02*
D03*
Y435500D02*
D03*
D59*
X227500Y520000D02*
D03*
X370000Y675000D02*
D03*
X377500Y610000D02*
D03*
X290000Y510000D02*
D03*
X117500Y542500D02*
D03*
X210000D02*
D03*
X233050Y250550D02*
D03*
X967500Y581500D02*
D03*
X952500D02*
D03*
X936500D02*
D03*
X602500Y667500D02*
D03*
X222500Y440000D02*
D03*
X228524Y383976D02*
D03*
X247500Y480000D02*
D03*
X210000Y487500D02*
D03*
X162500Y507500D02*
D03*
X235000Y292500D02*
D03*
X220000Y272500D02*
D03*
X112500Y515000D02*
D03*
D60*
X552500Y82280D02*
X602280Y32500D01*
X552500Y82280D02*
Y132000D01*
X220000Y165000D02*
X345000D01*
X385000D01*
X418000Y132000D01*
X552500D01*
X520000Y215500D02*
X552500Y183000D01*
X520000Y215500D02*
Y315000D01*
X424500Y410500D02*
X520000Y315000D01*
X390000Y410500D02*
X424500D01*
M02*
